<svg xmlns="http://www.w3.org/2000/svg" width="372.047" height="524.409"><path fill="#63a3e2" fill-rule="evenodd" stroke="#164f84" stroke-width="3" d="M330.637 292.844c-23.392-17.33-32.988-37.765-58.764-52.82 38.862-7.44 46.12-5.461 70.513 8.035 24.544 13.579 35.863 69.335-11.749 44.785z"/><path fill="#3a6590" fill-rule="evenodd" stroke="#164f84" stroke-width="3" d="M289.68 209.96c-74.134-35.592-161.213-13.018-233.607 26.483-14.137 7.714-27.714 16.073-40.525 24.771 1.934-.467 2.528-26.939 3.584-32.84-2.2-65.339 20.302-112.812 83.166-135.977C134.338 89 171.475 79.1 203.243 87.212c22.392 10.487 27.446 16.704 52.332 41.745 4.343 9.117 33.147 80.9 34.105 81.002z"/><path fill="#3a6590" fill-rule="evenodd" stroke="#164f84" stroke-width="3" d="M346.976 251.253c-37.373-25.678-70.484-59.098-109.559-62.062-57.424-3.931-125.3 15.953-185.133 48.74 28.554 38.17 38.987 71.52 97.142 51.506 58.976-20.298 140.598-79.42 197.55-38.184z"/><path fill="#63a3e2" fill-rule="evenodd" stroke="#164f84" stroke-width="3" d="M290.234 208.5c-72.331-34.439-144.038-7.696-218.565 20.217 9.231-114.087 4.79-145.16 123.288-143.93 23.54 3.035 37.32 17.282 62.207 42.323 4.343 9.117 28.505 63.902 33.07 81.39z"/></svg>